<svg xmlns="http://www.w3.org/2000/svg" viewBox="0 0 1920 1080" width="1920" height="1080">
  <defs>
    <linearGradient id="bgGrad" x1="0%" y1="0%" x2="100%" y2="100%">
      <stop offset="0%" style="stop-color:#050a14;stop-opacity:1"/>
      <stop offset="25%" style="stop-color:#0a1628;stop-opacity:1"/>
      <stop offset="50%" style="stop-color:#0f1d36;stop-opacity:1"/>
      <stop offset="75%" style="stop-color:#141e38;stop-opacity:1"/>
      <stop offset="100%" style="stop-color:#0a1628;stop-opacity:1"/>
    </linearGradient>
    <radialGradient id="glow1" cx="30%" cy="35%" r="45%">
      <stop offset="0%" style="stop-color:#4a1942;stop-opacity:0.35"/>
      <stop offset="50%" style="stop-color:#2d1b4e;stop-opacity:0.12"/>
      <stop offset="100%" style="stop-color:#0a1628;stop-opacity:0"/>
    </radialGradient>
    <radialGradient id="glow2" cx="70%" cy="55%" r="40%">
      <stop offset="0%" style="stop-color:#1a3a5c;stop-opacity:0.28"/>
      <stop offset="55%" style="stop-color:#0f2045;stop-opacity:0.08"/>
      <stop offset="100%" style="stop-color:#050a14;stop-opacity:0"/>
    </radialGradient>
    <radialGradient id="glow3" cx="50%" cy="20%" r="35%">
      <stop offset="0%" style="stop-color:#6b1a55;stop-opacity:0.18"/>
      <stop offset="60%" style="stop-color:#4a1050;stop-opacity:0.05"/>
      <stop offset="100%" style="stop-color:#0a1628;stop-opacity:0"/>
    </radialGradient>
    <linearGradient id="lineGrad1" x1="0%" y1="0%" x2="100%" y2="0%">
      <stop offset="0%" style="stop-color:#00d4ff;stop-opacity:0"/>
      <stop offset="50%" style="stop-color:#00d4ff;stop-opacity:0.15"/>
      <stop offset="100%" style="stop-color:#00d4ff;stop-opacity:0"/>
    </linearGradient>
    <linearGradient id="lineGrad2" x1="0%" y1="0%" x2="100%" y2="0%">
      <stop offset="0%" style="stop-color:#ff00aa;stop-opacity:0"/>
      <stop offset="50%" style="stop-color:#ff00aa;stop-opacity:0.1"/>
      <stop offset="100%" style="stop-color:#ff00aa;stop-opacity:0"/>
    </linearGradient>
    <filter id="blurGlow" x="-50%" y="-50%" width="200%" height="200%">
      <feGaussianBlur in="SourceGraphic" stdDeviation="60"/>
    </filter>
    <filter id="softBlur" x="-20%" y="-20%" width="140%" height="140%">
      <feGaussianBlur in="SourceGraphic" stdDeviation="8"/>
    </filter>
  </defs>
  <rect width="1920" height="1080" fill="url(#bgGrad)"/>
  <g filter="url(#blurGlow)">
    <ellipse cx="576" cy="378" rx="500" ry="400" fill="url(#glow1)"/>
    <ellipse cx="1344" cy="594" rx="450" ry="350" fill="url(#glow2)"/>
    <ellipse cx="960" cy="216" rx="380" ry="280" fill="url(#glow3)"/>
  </g>
  <g opacity="0.08">
    <path d="M-50 300 Q200 280 480 320 T1000 290 T1520 330 T1980 295" stroke="#00d4ff" stroke-width="1" fill="none"/>
    <path d="M-50 600 Q250 570 520 620 T1100 580 T1580 630 T1980 595" stroke="#7b68ee" stroke-width="1" fill="none"/>
    <path d="M-50 850 Q180 820 450 870 T1050 830 T1550 880 T1980 845" stroke="#ff00aa" stroke-width="1" fill="none"/>
  </g>
  <g opacity="0.06" filter="url(#softBlur)">
    <line x1="200" y1="150" x2="1720" y2="150" stroke="url(#lineGrad1)" stroke-width="1"/>
    <line x1="150" y1="400" x2="1770" y2="400" stroke="url(#lineGrad2)" stroke-width="1"/>
    <line x1="250" y1="650" x2="1670" y2="650" stroke="url(#lineGrad1)" stroke-width="1"/>
    <line x1="120" y1="900" x2="1800" y2="900" stroke="url(#lineGrad2)" stroke-width="1"/>
  </g>
  <g opacity="0.04">
    <circle cx="160" cy="220" r="80" stroke="#00d4ff" stroke-width="0.5" fill="none"/>
    <circle cx="1760" cy="340" r="100" stroke="#ff00aa" stroke-width="0.5" fill="none"/>
    <circle cx="240" cy="720" r="90" stroke="#7b68ee" stroke-width="0.5" fill="none"/>
    <circle cx="1680" cy="800" r="70" stroke="#00d4ff" stroke-width="0.5" fill="none"/>
  </g>
  <g opacity="0.03">
    <polygon points="960,80 980,140 940,140" stroke="#7b68ee" stroke-width="0.5" fill="none"/>
    <polygon points="100,500 130,560 70,560" stroke="#00d4ff" stroke-width="0.5" fill="none"/>
    <polygon points="1820,650 1850,710 1790,710" stroke="#ff00aa" stroke-width="0.5" fill="none"/>
  </g>
  <g opacity="0.02">
    <rect x="300" y="200" width="60" height="60" rx="8" stroke="#00d4ff" stroke-width="0.5" fill="none" transform="rotate(15 330 230)"/>
    <rect x="1540" y="480" width="50" height="50" rx="6" stroke="#ff00aa" stroke-width="0.5" fill="none" transform="rotate(-10 1565 505)"/>
    <rect x="420" y="750" width="55" height="55" rx="7" stroke="#7b68ee" stroke-width="0.5" fill="none" transform="rotate(25 447 777)"/>
  </g>
</svg>