<svg xmlns="http://www.w3.org/2000/svg" viewBox="0 0 400 300" width="400" height="300">
  <defs>
    <linearGradient id="contentBg" x1="0%" y1="0%" x2="100%" y2="100%">
      <stop offset="0%" style="stop-color:#1a1a2e"/>
      <stop offset="50%" style="stop-color:#16213e"/>
      <stop offset="100%" style="stop-color:#1a1a2e"/>
    </linearGradient>
    <linearGradient id="timelineGrad" x1="0%" y1="0%" x2="100%" y2="0%">
      <stop offset="0%" style="stop-color:#e94560"/>
      <stop offset="50%" style="stop-color:#ff6b6b"/>
      <stop offset="100%" style="stop-color:#e94560"/>
    </linearGradient>
    <linearGradient id="videoGrad" x1="0%" y1="0%" x2="100%" y2="100%">
      <stop offset="0%" style="stop-color:#0f3460"/>
      <stop offset="50%" style="stop-color:#16213e"/>
      <stop offset="100%" style="stop-color:#0a1628"/>
    </linearGradient>
    <filter id="panelShadow">
      <feDropShadow dx="0" dy="4" stdDeviation="8" flood-opacity="0.25"/>
    </filter>
    <filter id="glowEffect">
      <feGaussianBlur in="SourceGraphic" stdDeviation="6"/>
    </filter>
  </defs>
  <rect width="400" height="300" fill="url(#contentBg)"/>
  <g filter="url(#panelShadow)">
    <rect x="30" y="20" width="340" height="260" rx="12" fill="#0d1117"/>
  </g>
  <rect x="40" y="32" width="320" height="180" rx="6" fill="url(#videoGrad)"/>
  <g opacity="0.15">
    <circle cx="200" cy="122" r="35" fill="#e94560"/>
    <polygon points="190,108 190,136 214,122" fill="#fff"/>
  </g>
  <rect x="55" y="48" width="60" height="5" rx="2.5" fill="#e94560" opacity="0.4"/>
  <rect x="55" y="58" width="90" height="4" rx="2" fill="#fff" opacity="0.08"/>
  <g opacity="0.06">
    <rect x="280" y="42" width="70" height="24" rx="4" fill="#e94560"/>
    <text x="315" y="58" text-anchor="middle" font-family="Arial, sans-serif" font-size="10" fill="#fff">REC</text>
    <circle cx="295" cy="54" r="3" fill="#ff4444"/>
  </g>
  <rect x="40" y="222" width="320" height="6" rx="3" fill="#1e2738"/>
  <rect x="40" y="222" width="180" height="6" rx="3" fill="url(#timelineGrad)"/>
  <circle cx="220" cy="225" r="7" fill="#fff"/>
  <circle cx="220" cy="225" r="4" fill="#e94560"/>
  <text x="52" y="240" font-family="Arial, sans-serif" font-size="9" fill="#666">00:18</text>
  <text x="338" y="240" font-family="Arial, sans-serif" font-size="9" fill="#666">03:45</text>
  <g transform="translate(50, 250)">
    <rect x="0" y="0" width="28" height="22" rx="4" fill="#e94560" opacity="0.7"/>
    <text x="14" y="16" text-anchor="middle" font-family="Arial, sans-serif" font-size="11" fill="#fff">▶</text>
    <rect x="36" y="3" width="26" height="16" rx="3" fill="#2a3040"/>
    <text x="49" y="15" text-anchor="middle" font-family="Arial, sans-serif" font-size="9" fill="#888">⏸</text>
    <rect x="68" y="3" width="26" height="16" rx="3" fill="#2a3040"/>
    <text x="81" y="15" text-anchor="middle" font-family="Arial, sans-serif" font-size="9" fill="#888">⏹</text>
    <rect x="102" y="2" width="80" height="18" rx="4" fill="#2a3040"/>
    <rect x="105" y="5" width="40" height="12" rx="2" fill="#4a90d9" opacity="0.5"/>
    <circle cx="148" cy="11" r="4" fill="#888"/>
    <text x="192" y="15" font-family="Arial, sans-serif" font-size="8" fill="#666">🔊</text>
    <rect x="205" y="3" width="28" height="16" rx="3" fill="#e94560" opacity="0.6"/>
    <text x="219" y="15" text-anchor="middle" font-family="Arial, sans-serif" font-size="9" fill="#fff">✂</text>
    <rect x="239" y="3" width="28" height="16" rx="3" fill="#2a3040"/>
    <text x="253" y="15" text-anchor="middle" font-family="Arial, sans-serif" font-size="9" fill="#888">✨</text>
    <rect x="275" y="3" width="38" height="16" rx="3" fill="#4a90d9"/>
    <text x="294" y="15" text-anchor="middle" font-family="Arial, sans-serif" font-size="8" fill="#fff">导出</text>
  </g>
  <g filter="url(#glowEffect)" opacity="0.08">
    <ellipse cx="200" cy="120" rx="140" ry="85" fill="#e94560"/>
  </g>
</svg>