<svg xmlns="http://www.w3.org/2000/svg" viewBox="0 0 400 300" width="400" height="300">
  <defs>
    <linearGradient id="liveBg" x1="0%" y1="0%" x2="100%" y2="100%">
      <stop offset="0%" style="stop-color:#0f0f1a"/>
      <stop offset="50%" style="stop-color:#1a1a2e"/>
      <stop offset="100%" style="stop-color:#12121f"/>
    </linearGradient>
    <linearGradient id="screenGrad" x1="0%" y1="0%" x2="100%" y2="100%">
      <stop offset="0%" style="stop-color:#1e3a5f"/>
      <stop offset="50%" style="stop-color:#162d48"/>
      <stop offset="100%" style="stop-color:#0f2038"/>
    </linearGradient>
    <radialGradient id="liveGlow" cx="50%" cy="50%" r="50%">
      <stop offset="0%" style="stop-color:#ff4757;stop-opacity:0.25"/>
      <stop offset="60%" style="stop-color:#ff6b81;stop-opacity:0.08"/>
      <stop offset="100%" style="stop-color:#0f0f1a;stop-opacity:0"/>
    </radialGradient>
    <filter id="neonBlur">
      <feGaussianBlur in="SourceGraphic" stdDeviation="5"/>
    </filter>
  </defs>
  <rect width="400" height="300" fill="url(#liveBg)"/>
  <ellipse cx="200" cy="150" rx="180" ry="140" fill="url(#liveGlow)"/>
  <g>
    <rect x="60" y="40" width="280" height="175" rx="12" fill="#0a0a14" stroke="#2a2a40" stroke-width="2"/>
    <rect x="70" y="50" width="260" height="145" rx="6" fill="url(#screenGrad)"/>
    <g opacity="0.35">
      <circle cx="120" cy="105" r="28" fill="#ff4757" opacity="0.15"/>
      <ellipse cx="120" cy="118" rx="20" ry="24" fill="#c44569" opacity="0.2"/>
      <rect x="160" y="85" width="80" height="8" rx="4" fill="#fff" opacity="0.08"/>
      <rect x="160" y="100" width="120" height="6" rx="3" fill="#fff" opacity="0.05"/>
      <rect x="160" y="112" width="90" height="6" rx="3" fill="#fff" opacity="0.06"/>
    </g>
    <g opacity="0.18">
      <rect x="78" y="170" width="55" height="18" rx="9" fill="#ff4757"/>
      <text x="106" y="183" text-anchor="middle" font-family="Arial, sans-serif" font-size="10" fill="#fff" font-weight="bold">LIVE</text>
      <rect x="142" y="172" width="30" height="14" rx="7" fill="#2a2a40"/>
      <text x="157" y="183" text-anchor="middle" font-family="Arial, sans-serif" font-size="8" fill="#aaa">❤ 2.3k</text>
      <rect x="180" y="172" width="35" height="14" rx="7" fill="#2a2a40"/>
      <text x="198" y="183" text-anchor="middle" font-family="Arial, sans-serif" font-size="8" fill="#aaa">💬 856</text>
      <rect x="223" y="172" width="95" height="14" rx="7" fill="#2a2a40"/>
      <text x="270" y="183" text-anchor="middle" font-family="Arial, sans-serif" font-size="8" fill="#aaa">👁 12.5k</text>
    </g>
  </g>
  <g filter="url(#neonBlur)" opacity="0.6">
    <circle cx="88" cy="58" r="5" fill="#ff4757"/>
    <text x="98" y="62" font-family="Arial, sans-serif" font-size="9" fill="#ff4757" font-weight="bold">● LIVE</text>
  </g>
  <g opacity="0.12">
    <rect x="65" y="230" width="270" height="55" rx="8" fill="#1a1a2e"/>
    <rect x="75" y="240" width="200" height="10" rx="5" fill="#2a2a40"/>
    <rect x="75" y="256" width="150" height="8" rx="4" fill="#2a2a40"/>
    <rect x="75" y="269" width="180" height="8" rx="4" fill="#2a2a40"/>
    <circle cx="310" cy="258" r="16" fill="#3a3a54"/>
    <path d="M304 255 L308 259 L317 250" stroke="#00d4aa" stroke-width="2.5" fill="none" stroke-linecap="round" stroke-linejoin="round"/>
  </g>
</svg>