<svg xmlns="http://www.w3.org/2000/svg" viewBox="0 0 400 300" width="400" height="300">
  <defs>
    <linearGradient id="skyGrad" x1="0%" y1="0%" x2="0%" y2="100%">
      <stop offset="0%" style="stop-color:#1a3a6c"/>
      <stop offset="40%" style="stop-color:#4a7ab8"/>
      <stop offset="70%" style="stop-color:#87b8d8"/>
      <stop offset="100%" style="stop-color:#c8e4f4"/>
    </linearGradient>
    <linearGradient id="buildingGrad" x1="0%" y1="100%" x2="0%" y2="0%">
      <stop offset="0%" style="stop-color:#1a2035"/>
      <stop offset="50%" style="stop-color:#2a3050"/>
      <stop offset="100%" style="stop-color:#3a4060"/>
    </linearGradient>
    <linearGradient id="groundGrad" x1="0%" y1="0%" x2="0%" y2="100%">
      <stop offset="0%" style="stop-color:#4a7050"/>
      <stop offset="100%" style="stop-color:#2a4830"/>
    </linearGradient>
    <filter id="glow">
      <feGaussianBlur in="SourceGraphic" stdDeviation="3"/>
    </filter>
  </defs>
  <rect width="400" height="300" fill="url(#skyGrad)"/>
  <g opacity="0.15">
    <circle cx="80" cy="60" r="25" fill="#fff"/>
    <circle cx="320" cy="45" r="18" fill="#fff"/>
    <circle cx="200" cy="75" r="12" fill="#fff"/>
  </g>
  <path d="M0 220 Q100 200 200 215 T400 210 L400 300 L0 300 Z" fill="url(#groundGrad)"/>
  <g opacity="0.85">
    <rect x="60" y="120" width="55" height="105" fill="url(#buildingGrad)" rx="2"/>
    <rect x="68" y="130" width="10" height="14" fill="#ffd700" opacity="0.35"/>
    <rect x="84" y="130" width="10" height="14" fill="#ffd700" opacity="0.25"/>
    <rect x="100" y="130" width="10" height="14" fill="#ffd700" opacity="0.4"/>
    <rect x="68" y="152" width="10" height="14" fill="#ffd700" opacity="0.3"/>
    <rect x="84" y="152" width="10" height="14" fill="#ffd700" opacity="0.35"/>
    <rect x="100" y="152" width="10" height="14" fill="#ffd700" opacity="0.28"/>
    <rect x="76" y="180" width="24" height="30" fill="#2a4060" rx="2"/>
    <polygon points="87,120 60,140 115,140" fill="#3a4060"/>
    <rect x="150" y="90" width="70" height="135" fill="url(#buildingGrad)" rx="2"/>
    <rect x="160" y="100" width="12" height="16" fill="#ffd700" opacity="0.38"/>
    <rect x="178" y="100" width="12" height="16" fill="#ffd700" opacity="0.32"/>
    <rect x="198" y="100" width="12" height="16" fill="#ffd700" opacity="0.42"/>
    <rect x="160" y="124" width="12" height="16" fill="#ffd700" opacity="0.3"/>
    <rect x="178" y="124" width="12" height="16" fill="#ffd700" opacity="0.36"/>
    <rect x="198" y="124" width="12" height="16" fill="#ffd700" opacity="0.28"/>
    <rect x="160" y="148" width="12" height="16" fill="#ffd700" opacity="0.34"/>
    <rect x="178" y="148" width="12" height="16" fill="#ffd700" opacity="0.26"/>
    <rect x="198" y="148" width="12" height="16" fill="#ffd700" opacity="0.4"/>
    <rect x="172" y="175" width="26" height="38" fill="#2a4060" rx="2"/>
    <polygon points="185,90 150,112 220,112" fill="#3a4060"/>
    <rect x="260" y="140" width="65" height="85" fill="url(#buildingGrad)" rx="2"/>
    <rect x="270" y="150" width="11" height="14" fill="#ffd700" opacity="0.33"/>
    <rect x="286" y="150" width="11" height="14" fill="#ffd700" opacity="0.39"/>
    <rect x="304" y="150" width="11" height="14" fill="#ffd700" opacity="0.29"/>
    <rect x="270" y="172" width="11" height="14" fill="#ffd700" opacity="0.36"/>
    <rect x="286" y="172" width="11" height="14" fill="#ffd700" opacity="0.31"/>
    <rect x="304" y="172" width="11" height="14" fill="#ffd700" opacity="0.37"/>
    <rect x="280" y="196" width="22" height="24" fill="#2a4060" rx="2"/>
    <polygon points="292,140 260,158 325,158" fill="#3a4060"/>
  </g>
  <g filter="url(#glow)" opacity="0.15">
    <ellipse cx="185" cy="250" rx="90" ry="20" fill="#87b8d8"/>
  </g>
</svg>