<svg xmlns="http://www.w3.org/2000/svg" viewBox="0 0 400 500" width="400" height="500">
  <defs>
    <linearGradient id="gamerBg" x1="0%" y1="0%" x2="100%" y2="100%">
      <stop offset="0%" style="stop-color:#0d1117"/>
      <stop offset="50%" style="stop-color:#161b22"/>
      <stop offset="100%" style="stop-color:#0d1117"/>
    </linearGradient>
    <linearGradient id="gamerHair" x1="0%" y1="0%" x2="100%" y2="100%">
      <stop offset="0%" style="stop-color:#00ff88"/>
      <stop offset="50%" style="stop-color:#00cc6a"/>
      <stop offset="100%" style="stop-color:#00994f"/>
    </linearGradient>
    <linearGradient id="gamerSkin" x1="0%" y1="0%" x2="100%" y2="100%">
      <stop offset="0%" style="stop-color:#ffe4d4"/>
      <stop offset="100%" style="stop-color:#f5c7b3"/>
    </linearGradient>
    <radialGradient id="neonGlow" cx="50%" cy="50%" r="50%">
      <stop offset="0%" style="stop-color:#00ff88;stop-opacity:0.4"/>
      <stop offset="100%" style="stop-color:#00ff88;stop-opacity:0"/>
    </radialGradient>
    <filter id="neonFilter">
      <feGaussianBlur in="SourceGraphic" stdDeviation="8" result="blur"/>
      <feMerge>
        <feMergeNode in="blur"/>
        <feMergeNode in="SourceGraphic"/>
      </feMerge>
    </filter>
  </defs>
  <rect width="400" height="500" fill="url(#gamerBg)"/>
  <ellipse cx="200" cy="250" rx="160" ry="200" fill="url(#neonGlow)"/>
  <g filter="url(#neonFilter)">
    <path d="M120 140 Q115 180 125 220 Q110 200 105 170 Q100 145 115 130 Z" fill="url(#gamerHair)"/>
    <path d="M280 140 Q285 180 275 220 Q290 200 295 170 Q300 145 285 130 Z" fill="url(#gamerHair)"/>
    <ellipse cx="200" cy="135" rx="85" ry="95" fill="url(#gamerHair)"/>
  </g>
  <g>
    <ellipse cx="200" cy="210" rx="62" ry="75" fill="url(#gamerSkin)"/>
    <rect x="155" y="185" width="35" height="20" rx="10" fill="#1a1a2e"/>
    <rect x="210" y="185" width="35" height="20" rx="10" fill="#1a1a2e"/>
    <circle cx="172" cy="197" r="6" fill="#00ff88"/>
    <circle cx="228" cy="197" r="6" fill="#00ff88"/>
    <circle cx="174" cy="195" r="2" fill="#fff"/>
    <circle cx="230" cy="195" r="2" fill="#fff"/>
    <path d="M188 235 Q200 245 212 235" stroke="#e8a08a" stroke-width="2.5" fill="none" stroke-linecap="round"/>
    <line x1="165" y1="218" x2="182" y2="222" stroke="#e8c4b8" stroke-width="1.5" opacity="0.5"/>
    <line x1="235" y1="218" x2="218" y2="222" stroke="#e8c4b8" stroke-width="1.5" opacity="0.5"/>
  </g>
  <g filter="url(#neonFilter)" opacity="0.9">
    <path d="M150 295 Q145 350 155 400 Q165 450 190 480 L210 480 Q235 450 245 400 Q255 350 250 295 Q225 280 200 278 Q175 280 150 295 Z" fill="#1a1a2e"/>
    <path d="M150 295 Q168 308 200 305 Q232 308 250 295 Q230 285 200 282 Q170 285 150 295 Z" fill="#00ff88" opacity="0.25"/>
  </g>
  <g filter="url(#neonFilter)" opacity="0.15">
    <text x="200" y="495" text-anchor="middle" font-family="Arial, sans-serif" font-size="11" font-weight="bold" fill="#00ff88" letter-spacing="3">GAMER</text>
  </g>
</svg>