<svg viewBox="0 0 400 400" xmlns="http://www.w3.org/2000/svg">
  <!-- 主对话气泡 -->
  <path d="M80 100 Q80 80 100 80 L280 80 Q300 80 300 100 L300 200 Q300 220 280 220 L200 220 L160 260 L160 220 L100 220 Q80 220 80 200 Z" fill="none" stroke="#FFB7C5" stroke-width="2"/>
  
  <!-- 内部对话气泡 -->
  <path d="M100 120 Q100 110 110 110 L270 110 Q280 110 280 120 L280 180 Q280 190 270 190 L200 190 L175 210 L175 190 L110 190 Q100 190 100 180 Z" fill="none" stroke="#FFB7C5" stroke-width="1.5" opacity="0.6"/>
  
  <!-- 心形装饰 1 -->
  <path d="M130 145 Q130 135 140 135 Q150 135 150 145 Q150 155 140 165 Q130 155 130 145" fill="none" stroke="#FFB7C5" stroke-width="1.5"/>
  
  <!-- 心形装饰 2 -->
  <path d="M250 145 Q250 135 260 135 Q270 135 270 145 Q270 155 260 165 Q250 155 250 145" fill="none" stroke="#FFB7C5" stroke-width="1.5"/>
  
  <!-- 塔罗牌元素 - 星星 -->
  <path d="M200 280 L205 295 L220 295 L208 305 L213 320 L200 310 L187 320 L192 305 L180 295 L195 295 Z" fill="none" stroke="#FFB7C5" stroke-width="1.5"/>
  
  <!-- 塔罗牌元素 - 月亮 -->
  <path d="M320 280 Q340 260 340 290 Q340 320 320 300 Q330 290 320 280" fill="none" stroke="#FFB7C5" stroke-width="1.5"/>
  
  <!-- 塔罗牌元素 - 太阳 -->
  <circle cx="60" cy="290" r="15" fill="none" stroke="#FFB7C5" stroke-width="1.5"/>
  <line x1="60" y1="265" x2="60" y2="275" stroke="#FFB7C5" stroke-width="1"/>
  <line x1="60" y1="305" x2="60" y2="315" stroke="#FFB7C5" stroke-width="1"/>
  <line x1="35" y1="290" x2="45" y2="290" stroke="#FFB7C5" stroke-width="1"/>
  <line x1="75" y1="290" x2="85" y2="290" stroke="#FFB7C5" stroke-width="1"/>
  <line x1="42" y1="272" x2="49" y2="279" stroke="#FFB7C5" stroke-width="1"/>
  <line x1="71" y1="279" x2="78" y2="272" stroke="#FFB7C5" stroke-width="1"/>
  <line x1="42" y1="308" x2="49" y2="301" stroke="#FFB7C5" stroke-width="1"/>
  <line x1="71" y1="301" x2="78" y2="308" stroke="#FFB7C5" stroke-width="1"/>
  
  <!-- 小对话气泡 -->
  <ellipse cx="320" cy="150" rx="25" ry="18" fill="none" stroke="#FFB7C5" stroke-width="1.5" opacity="0.7"/>
  <path d="M305 160 L295 175 L315 165" fill="none" stroke="#FFB7C5" stroke-width="1.5" opacity="0.7"/>
  
  <ellipse cx="90" cy="280" rx="20" ry="15" fill="none" stroke="#FFB7C5" stroke-width="1.5" opacity="0.7"/>
  <path d="M78 288 L70 300 L85 292" fill="none" stroke="#FFB7C5" stroke-width="1.5" opacity="0.7"/>
  
  <!-- 装饰圆点 -->
  <circle cx="150" cy="60" r="3" fill="#FFB7C5" opacity="0.4"/>
  <circle cx="250" cy="60" r="3" fill="#FFB7C5" opacity="0.4"/>
  <circle cx="350" cy="240" r="3" fill="#FFB7C5" opacity="0.4"/>
  <circle cx="50" cy="240" r="3" fill="#FFB7C5" opacity="0.4"/>
</svg>