<svg viewBox="0 0 400 400" xmlns="http://www.w3.org/2000/svg">
  <!-- 书本主体 -->
  <path d="M100 120 Q150 100 200 120 Q250 100 300 120 L300 280 Q250 260 200 280 Q150 260 100 280 Z" fill="none" stroke="#5A8F7B" stroke-width="2"/>
  
  <!-- 书脊 -->
  <line x1="200" y1="120" x2="200" y2="280" stroke="#5A8F7B" stroke-width="2"/>
  
  <!-- 书页线条 - 左侧 -->
  <line x1="115" y1="140" x2="185" y2="140" stroke="#5A8F7B" stroke-width="1" opacity="0.5"/>
  <line x1="115" y1="160" x2="185" y2="160" stroke="#5A8F7B" stroke-width="1" opacity="0.5"/>
  <line x1="115" y1="180" x2="185" y2="180" stroke="#5A8F7B" stroke-width="1" opacity="0.5"/>
  <line x1="115" y1="200" x2="185" y2="200" stroke="#5A8F7B" stroke-width="1" opacity="0.5"/>
  <line x1="115" y1="220" x2="185" y2="220" stroke="#5A8F7B" stroke-width="1" opacity="0.5"/>
  <line x1="115" y1="240" x2="185" y2="240" stroke="#5A8F7B" stroke-width="1" opacity="0.5"/>
  <line x1="115" y1="260" x2="185" y2="260" stroke="#5A8F7B" stroke-width="1" opacity="0.5"/>
  
  <!-- 书页线条 - 右侧 -->
  <line x1="215" y1="140" x2="285" y2="140" stroke="#5A8F7B" stroke-width="1" opacity="0.5"/>
  <line x1="215" y1="160" x2="285" y2="160" stroke="#5A8F7B" stroke-width="1" opacity="0.5"/>
  <line x1="215" y1="180" x2="285" y2="180" stroke="#5A8F7B" stroke-width="1" opacity="0.5"/>
  <line x1="215" y1="200" x2="285" y2="200" stroke="#5A8F7B" stroke-width="1" opacity="0.5"/>
  <line x1="215" y1="220" x2="285" y2="220" stroke="#5A8F7B" stroke-width="1" opacity="0.5"/>
  <line x1="215" y1="240" x2="285" y2="240" stroke="#5A8F7B" stroke-width="1" opacity="0.5"/>
  <line x1="215" y1="260" x2="285" y2="260" stroke="#5A8F7B" stroke-width="1" opacity="0.5"/>
  
  <!-- 灯泡 - 知识象征 -->
  <path d="M200 60 Q230 60 230 90 Q230 110 215 120 L215 135 L185 135 L185 120 Q170 110 170 90 Q170 60 200 60" fill="none" stroke="#5A8F7B" stroke-width="2"/>
  
  <!-- 灯泡内部 -->
  <line x1="190" y1="125" x2="210" y2="125" stroke="#5A8F7B" stroke-width="1"/>
  <line x1="192" y1="130" x2="208" y2="130" stroke="#5A8F7B" stroke-width="1"/>
  
  <!-- 灯泡光芒 -->
  <line x1="200" y1="40" x2="200" y2="50" stroke="#5A8F7B" stroke-width="1.5" opacity="0.6"/>
  <line x1="160" y1="60" x2="170" y2="65" stroke="#5A8F7B" stroke-width="1.5" opacity="0.6"/>
  <line x1="240" y1="60" x2="230" y2="65" stroke="#5A8F7B" stroke-width="1.5" opacity="0.6"/>
  <line x1="155" y1="90" x2="165" y2="90" stroke="#5A8F7B" stroke-width="1.5" opacity="0.6"/>
  <line x1="245" y1="90" x2="235" y2="90" stroke="#5A8F7B" stroke-width="1.5" opacity="0.6"/>
  
  <!-- 知识符号 - 无限符号 -->
  <path d="M120 320 Q140 300 160 320 Q180 340 200 320 Q220 300 240 320 Q260 340 280 320" fill="none" stroke="#5A8F7B" stroke-width="1.5" opacity="0.6"/>
  
  <!-- 装饰元素 -->
  <circle cx="80" cy="150" r="4" fill="none" stroke="#5A8F7B" stroke-width="1" opacity="0.4"/>
  <circle cx="320" cy="150" r="4" fill="none" stroke="#5A8F7B" stroke-width="1" opacity="0.4"/>
  <circle cx="80" cy="250" r="4" fill="none" stroke="#5A8F7B" stroke-width="1" opacity="0.4"/>
  <circle cx="320" cy="250" r="4" fill="none" stroke="#5A8F7B" stroke-width="1" opacity="0.4"/>
  
  <!-- 小星星装饰 -->
  <path d="M320 300 L322 306 L328 306 L323 310 L325 316 L320 312 L315 316 L317 310 L312 306 L318 306 Z" fill="none" stroke="#5A8F7B" stroke-width="1" opacity="0.5"/>
</svg>